<svg width="60" height="60" viewBox="0 0 60 60" fill="none" xmlns="http://www.w3.org/2000/svg">
<rect width="60" height="60" rx="30" fill="#1E3743"/>
<g clip-path="url(#clip0_104_1991)">
<path d="M32.3062 12.0322C24.5373 11.5541 17.996 16.4414 18.144 24.4043L18.1381 25.125L14.7628 31.0852C14.5813 31.4063 14.5651 31.7951 14.7197 32.1311C14.8731 32.4672 15.1792 32.7086 15.5411 32.7793L17.627 33.355L18.2818 39.6758C18.2998 40.2844 18.5706 40.8572 19.0295 41.2585C19.489 41.6575 20.0958 41.8475 20.7009 41.7797L22.3669 41.9127C22.6916 41.8762 23.0175 41.9798 23.2607 42.1979C23.5045 42.4166 23.6435 42.7286 23.6435 43.0557V48H37.7355C37.7355 48 37.7355 45.6139 37.7355 44.653C37.7355 43.6921 38.0668 41.4953 38.697 40.4901C40.9813 36.8375 44.7004 34.8941 45.3276 27.4021C45.9548 19.9112 41.4839 12.5977 32.3062 12.0322ZM42.0201 25.963C41.3288 25.963 40.6069 25.963 40.6069 25.963C40.2631 25.9625 39.9839 25.6833 39.9832 25.3394V24.469C39.9832 24.1502 39.7239 23.8908 39.4051 23.8908C39.0858 23.8908 38.8265 24.1502 38.8265 24.469V25.3394C38.827 26.3231 39.6238 27.1193 40.6069 27.1199C40.6087 27.1199 41.1964 27.1199 41.8195 27.1199C41.1551 29.8618 39.3249 30.8946 37.49 29.8582C36.2942 29.1819 36.396 28.1724 35.8383 27.3349V24.276C35.8383 23.9573 35.5789 23.6979 35.2596 23.6979C34.9403 23.6979 34.6815 23.9574 34.6815 24.276V26.4279C33.8511 26.0721 32.529 25.8438 30.3214 25.8438C29.7235 25.8438 29.1718 25.839 28.6572 25.8294V23.5056C28.6572 23.1857 28.3978 22.9269 28.0785 22.9269C27.7591 22.9269 27.5004 23.1857 27.5004 23.5056V25.7977C22.8222 25.6155 22.1345 24.8637 21.7667 22.9731C21.7517 22.8604 21.7409 22.749 21.7313 22.6382H24.1869C25.3515 22.6382 26.2956 21.694 26.2956 20.5301V19.6194C26.2956 19.3001 26.0363 19.0413 25.7169 19.0413C25.3976 19.0413 25.1389 19.3001 25.1389 19.6194V20.5301C25.1377 21.0554 24.7123 21.4808 24.1869 21.4819H21.7283C21.8697 19.8728 22.6299 18.5573 23.8113 17.3543C24.7141 16.4335 25.8278 15.72 27.0912 15.2354C27.0912 15.9831 27.0912 16.7127 27.0912 17.0057C27.0947 17.5018 27.2686 18.0074 27.6028 18.4374C27.7705 18.6507 27.9838 18.8437 28.2444 18.9838C28.5032 19.1251 28.8117 19.2102 29.1406 19.2097C30.0697 19.2097 30.9996 19.2097 30.9996 19.2097C31.3188 19.2097 31.5777 18.9503 31.5777 18.6315C31.5777 18.3123 31.3188 18.0529 30.9996 18.0529C30.9996 18.0529 30.0697 18.0529 29.1406 18.0529C29.0052 18.0522 28.8968 18.0211 28.7938 17.966C28.641 17.8845 28.4984 17.7341 28.3978 17.5496C28.2977 17.3675 28.2462 17.1541 28.2479 17.0056C28.2479 16.6648 28.2479 15.7326 28.2479 14.8687C29.2071 14.6207 30.2309 14.4895 31.3015 14.4895C31.5734 14.4895 31.849 14.4979 32.1246 14.5152C34.5508 14.6644 36.6512 15.4252 38.2962 16.7323V21.8179C38.2962 22.1378 38.5557 22.3971 38.875 22.3971C39.1943 22.3971 39.453 22.1377 39.453 21.8179V17.8234C39.4837 17.8575 39.5154 17.8905 39.5459 17.9253C41.203 19.8429 42.0961 22.489 42.0728 25.2956C42.0615 25.5276 42.0429 25.7479 42.0201 25.963Z" fill="white"/>
<path d="M34.6814 18.0588C34.3621 18.0588 34.1027 18.3182 34.1027 18.6375V20.5066C34.1021 20.9104 33.775 21.2398 33.37 21.2405H31.3074C30.9881 21.2405 30.7292 21.4987 30.7292 21.818C30.7292 22.1379 30.9881 22.3973 31.3074 22.3973H33.37C34.4142 22.3955 35.2595 21.5508 35.2595 20.5066V18.6375C35.2595 18.3182 35.0007 18.0588 34.6814 18.0588Z" fill="white"/>
</g>
<defs>
<clipPath id="clip0_104_1991">
<rect width="36" height="36" fill="white" transform="translate(12 12)"/>
</clipPath>
</defs>
</svg>
